<svg width="20" height="20" viewBox="0 0 20 20" fill="none" xmlns="http://www.w3.org/2000/svg">
<path d="M4.16699 7.5L4.73552 14.3223C4.90013 16.2977 4.98244 17.2853 5.50992 17.9803C5.72542 18.2643 5.9898 18.5075 6.29066 18.6987C7.02709 19.1667 8.01817 19.1667 10.0003 19.1667V19.1667C11.9825 19.1667 12.9736 19.1667 13.71 18.6987C14.0108 18.5075 14.2752 18.2643 14.4907 17.9803C15.0182 17.2853 15.1005 16.2977 15.2651 14.3223L15.8337 7.5" stroke="#818990" stroke-width="1.5"/>
<path d="M8.33301 5.83203V4.16537C8.33301 3.24489 9.0792 2.4987 9.99967 2.4987V2.4987C10.9201 2.4987 11.6663 3.24489 11.6663 4.16536V5.83203" stroke="#818990" stroke-width="1.5"/>
<path d="M3.33301 5.83203H16.6663" stroke="#818990" stroke-width="1.5" stroke-linecap="round"/>
</svg>
